<svg width="14" height="14" viewBox="0 0 14 14" fill="none" xmlns="http://www.w3.org/2000/svg">
<path d="M10.5 12.6875H5.25C4.9019 12.6875 4.56806 12.5492 4.32192 12.3031C4.07578 12.0569 3.9375 11.7231 3.9375 11.375V4.375C3.9375 4.0269 4.07578 3.69306 4.32192 3.44692C4.56806 3.20078 4.9019 3.0625 5.25 3.0625H10.5C10.8481 3.0625 11.1819 3.20078 11.4281 3.44692C11.6742 3.69306 11.8125 4.0269 11.8125 4.375V11.375C11.8125 11.7231 11.6742 12.0569 11.4281 12.3031C11.1819 12.5492 10.8481 12.6875 10.5 12.6875ZM5.25 3.9375C5.13397 3.9375 5.02269 3.98359 4.94064 4.06564C4.85859 4.14769 4.8125 4.25897 4.8125 4.375V11.375C4.8125 11.491 4.85859 11.6023 4.94064 11.6844C5.02269 11.7664 5.13397 11.8125 5.25 11.8125H10.5C10.616 11.8125 10.7273 11.7664 10.8094 11.6844C10.8914 11.6023 10.9375 11.491 10.9375 11.375V4.375C10.9375 4.25897 10.8914 4.14769 10.8094 4.06564C10.7273 3.98359 10.616 3.9375 10.5 3.9375H5.25Z" fill="white"/>
<path d="M2.625 8.3125C2.50897 8.3125 2.39769 8.26641 2.31564 8.18436C2.23359 8.10231 2.1875 7.99103 2.1875 7.875V2.625C2.1875 2.2769 2.32578 1.94306 2.57192 1.69692C2.81806 1.45078 3.1519 1.3125 3.5 1.3125H7.875C7.99103 1.3125 8.10231 1.35859 8.18436 1.44064C8.26641 1.52269 8.3125 1.63397 8.3125 1.75C8.3125 1.86603 8.26641 1.97731 8.18436 2.05936C8.10231 2.14141 7.99103 2.1875 7.875 2.1875H3.5C3.38397 2.1875 3.27269 2.23359 3.19064 2.31564C3.10859 2.39769 3.0625 2.50897 3.0625 2.625V7.875C3.0625 7.99103 3.01641 8.10231 2.93436 8.18436C2.85231 8.26641 2.74103 8.3125 2.625 8.3125Z" fill="white"/>
</svg>
