<svg width="24" height="24" viewBox="0 0 24 24" fill="none" xmlns="http://www.w3.org/2000/svg">
<mask id="path-1-inside-1_1_1438" fill="white">
<path d="M2 8C2 4.68629 4.68629 2 8 2H17C20.3137 2 23 4.68629 23 8V17C23 20.3137 20.3137 23 17 23H8C4.68629 23 2 20.3137 2 17V8Z"/>
</mask>
<path d="M8 3.4H17V0.6H8V3.4ZM21.6 8V17H24.4V8H21.6ZM17 21.6H8V24.4H17V21.6ZM3.4 17V8H0.6V17H3.4ZM8 21.6C5.45949 21.6 3.4 19.5405 3.4 17H0.6C0.6 21.0869 3.91309 24.4 8 24.4V21.6ZM21.6 17C21.6 19.5405 19.5405 21.6 17 21.6V24.4C21.0869 24.4 24.4 21.0869 24.4 17H21.6ZM17 3.4C19.5405 3.4 21.6 5.45949 21.6 8H24.4C24.4 3.91309 21.0869 0.6 17 0.6V3.4ZM8 0.6C3.91309 0.6 0.6 3.91309 0.6 8H3.4C3.4 5.45949 5.45949 3.4 8 3.4V0.6Z" fill="white" mask="url(#path-1-inside-1_1_1438)"/>
<path d="M14.313 6.80457C15.0006 5.61352 16.5229 5.20562 17.714 5.89328V5.89328C18.905 6.58093 19.3129 8.10322 18.6253 9.29427L15.6979 14.3647C15.0102 15.5557 13.4879 15.9636 12.2969 15.2759V15.2759C11.1058 14.5883 10.6979 13.066 11.3856 11.875L11.8233 11.1169" stroke="white" stroke-width="1.2" stroke-linecap="round" stroke-linejoin="round"/>
<path d="M11.277 17.0431C10.5893 18.2342 9.06704 18.6421 7.87599 17.9544V17.9544C6.68494 17.2668 6.27704 15.7445 6.9647 14.5534L9.89208 9.48306C10.5797 8.29201 12.102 7.88411 13.2931 8.57177V8.57177C14.4841 9.25942 14.892 10.7817 14.2044 11.9728L13.7488 12.7619" stroke="white" stroke-width="1.2" stroke-linecap="round" stroke-linejoin="round"/>
</svg>
