<svg width="20" height="20" viewBox="0 0 20 20" fill="none" xmlns="http://www.w3.org/2000/svg">
<path d="M20 10C20 15.5275 15.5267 20 10 20C4.47254 20 0 15.5267 0 10C0 9.56852 0.349766 9.21875 0.78125 9.21875C1.21273 9.21875 1.5625 9.56852 1.5625 10C1.5625 14.6637 5.3368 18.4375 10 18.4375C14.6637 18.4375 18.4375 14.6632 18.4375 10C18.4375 5.33625 14.6632 1.5625 10 1.5625C9.56852 1.5625 9.21875 1.21273 9.21875 0.78125C9.21875 0.349766 9.56852 0 10 0C15.5275 0 20 4.47332 20 10ZM6.26586 2.41406L7.27637 1.99547C7.67496 1.83031 7.8643 1.37332 7.69914 0.974687C7.53398 0.576055 7.07703 0.386641 6.67836 0.551914L5.66785 0.970508C5.26926 1.13566 5.07992 1.59266 5.24508 1.99129C5.40969 2.38859 5.86594 2.57961 6.26586 2.41406ZM3.64711 4.42051L4.42051 3.64711C4.72563 3.34199 4.72563 2.8473 4.42051 2.54223C4.11539 2.23715 3.6207 2.23711 3.31562 2.54223L2.54223 3.31562C2.23711 3.62074 2.23711 4.11543 2.54223 4.42051C2.84727 4.72555 3.34199 4.72563 3.64711 4.42051ZM0.974687 7.69918C1.37418 7.86465 1.8307 7.6741 1.99547 7.27641L2.41406 6.26586C2.57922 5.86723 2.38988 5.41023 1.99129 5.24508C1.59258 5.07996 1.13566 5.26926 0.970508 5.66785L0.551914 6.67836C0.386758 7.07703 0.576094 7.53402 0.974687 7.69918ZM10 6.09375C9.56852 6.09375 9.21875 6.44352 9.21875 6.875V9.21875H6.875C6.44352 9.21875 6.09375 9.56852 6.09375 10C6.09375 10.4315 6.44352 10.7812 6.875 10.7812H9.21875V13.125C9.21875 13.5565 9.56852 13.9062 10 13.9062C10.4315 13.9062 10.7812 13.5565 10.7812 13.125V10.7812H13.125C13.5565 10.7812 13.9062 10.4315 13.9062 10C13.9062 9.56852 13.5565 9.21875 13.125 9.21875H10.7812V6.875C10.7812 6.44352 10.4315 6.09375 10 6.09375Z" fill="url(#paint0_linear_1_293)"/>
<defs>
<linearGradient id="paint0_linear_1_293" x1="0" y1="0" x2="20" y2="20" gradientUnits="userSpaceOnUse">
<stop stop-color="#EE4365"/>
<stop offset="1" stop-color="#FFEEBD"/>
</linearGradient>
</defs>
</svg>
