<svg width="24" height="20" viewBox="0 0 24 20" fill="none" xmlns="http://www.w3.org/2000/svg">
<path d="M2.87161 15.3748H5.541C5.73309 15.3693 5.92114 15.4306 6.07308 15.5483L11.034 19.167C11.521 19.5283 12.1108 19.7244 12.7172 19.7269C13.1731 19.7253 13.622 19.6156 14.0273 19.4068C14.5034 19.1712 14.9034 18.8059 15.1812 18.3531C15.459 17.9002 15.6033 17.3782 15.5976 16.8469V3.15306C15.5976 2.62301 15.4509 2.10329 15.1738 1.65147C14.8966 1.19966 14.4998 0.833366 14.0273 0.593169C13.5548 0.352972 13.025 0.248243 12.4966 0.290578C11.9683 0.332913 11.462 0.520661 11.0337 0.833029L6.07284 4.45178C5.92091 4.56944 5.73285 4.63074 5.54077 4.62522H2.87161C2.11027 4.62607 1.38035 4.9289 0.842004 5.46725C0.303657 6.00561 0.000843663 6.73553 0 7.49687V12.5031C0.000831258 13.2645 0.303639 13.9944 0.841987 14.5328C1.38034 15.0711 2.11026 15.374 2.87161 15.3748ZM7.23333 6.04225L12.1941 2.4235C12.3287 2.32527 12.4879 2.26623 12.6541 2.25291C12.8202 2.23959 12.9868 2.27251 13.1353 2.34803C13.2839 2.42355 13.4087 2.53872 13.4958 2.68078C13.583 2.82285 13.6291 2.98626 13.6291 3.15292V16.8469C13.6291 17.0136 13.583 17.177 13.4958 17.3191C13.4087 17.4611 13.2839 17.5763 13.1354 17.6518C12.9868 17.7273 12.8202 17.7603 12.6541 17.747C12.488 17.7337 12.3288 17.6746 12.1942 17.5764L7.23328 13.9577C7.11147 13.8685 6.98316 13.7886 6.84942 13.7186V6.28145C6.98316 6.21146 7.11147 6.13155 7.23328 6.04239L7.23333 6.04225ZM1.96875 7.49687C1.96902 7.2575 2.06423 7.02801 2.23349 6.85874C2.40275 6.68947 2.63224 6.59425 2.87161 6.59397H4.88067V13.4061H2.87161C2.63223 13.4058 2.40273 13.3106 2.23347 13.1413C2.06421 12.972 1.96901 12.7425 1.96875 12.5031V7.49687ZM23.7117 8.14267L21.8543 10L23.7117 11.8574C23.8963 12.042 24 12.2924 24 12.5535C24 12.8146 23.8963 13.0649 23.7117 13.2496C23.5271 13.4342 23.2767 13.5379 23.0156 13.5379C22.7545 13.5379 22.5041 13.4342 22.3195 13.2496L20.4622 11.3922L18.6047 13.2495C18.5133 13.3409 18.4048 13.4134 18.2853 13.4629C18.1659 13.5124 18.0379 13.5378 17.9086 13.5378C17.7793 13.5378 17.6513 13.5124 17.5319 13.4629C17.4124 13.4134 17.3039 13.3409 17.2125 13.2495C17.1211 13.1581 17.0486 13.0496 16.9991 12.9301C16.9496 12.8107 16.9242 12.6827 16.9242 12.5534C16.9242 12.4241 16.9496 12.2961 16.9991 12.1767C17.0486 12.0573 17.1211 11.9487 17.2125 11.8573L19.07 10L17.2125 8.14262C17.0279 7.95801 16.9242 7.70761 16.9242 7.44653C16.9242 7.18544 17.0279 6.93505 17.2125 6.75043C17.3971 6.56582 17.6475 6.4621 17.9086 6.4621C18.1697 6.4621 18.4201 6.56582 18.6047 6.75043L20.4622 8.60781L22.3196 6.75043C22.5042 6.56582 22.7546 6.4621 23.0157 6.4621C23.2768 6.4621 23.5272 6.56582 23.7118 6.75043C23.8964 6.93505 24.0001 7.18544 24.0001 7.44653C24.0001 7.70761 23.8964 7.95801 23.7118 8.14262L23.7117 8.14267Z" fill="white"/>
</svg>
