<svg width="19" height="18" viewBox="0 0 19 18" fill="none" xmlns="http://www.w3.org/2000/svg">
<path d="M0.958911 7.51678C0.820568 7.85046 0.896568 8.23165 1.15188 8.48756L1.85666 9.19234C2.17076 9.50703 2.47654 9.91375 2.97054 9.88822C3.42891 9.86446 3.72757 9.45537 4.02741 9.15553L4.69538 8.48756C4.95129 8.23165 5.02669 7.85106 4.88835 7.51678C4.76188 7.21159 4.47866 7.01328 4.15507 6.98062C4.9976 4.51953 7.32866 2.74243 10.0712 2.74243C13.5215 2.74243 16.3287 5.54968 16.3287 8.99996C16.3287 12.4502 13.5215 15.2569 10.0712 15.2569C9.58016 15.2569 9.18057 15.6565 9.18057 16.1475C9.18057 16.6386 9.58016 17.0382 10.0712 17.0382C14.5035 17.0382 18.11 13.4323 18.11 8.99996C18.11 4.56762 14.5035 0.961182 10.0712 0.961182C6.34244 0.961182 3.20744 3.51728 2.30316 6.96696H1.78126C1.41966 6.96696 1.09666 7.1825 0.958318 7.51678H0.958911Z" fill="white"/>
</svg>
