<svg width="61" height="62" viewBox="0 0 61 62" fill="none" xmlns="http://www.w3.org/2000/svg">
<circle cx="30.5" cy="31" r="29.8297" fill="#212121" stroke="#949BA5" stroke-width="1.34066"/>
<g clip-path="url(#clip0_1_797)">
<path d="M46.5933 26.8595C46.3779 26.1931 45.7869 25.7199 45.0876 25.6568L35.5897 24.7944L31.834 16.0038C31.5571 15.3596 30.9264 14.9425 30.2257 14.9425C29.525 14.9425 28.8943 15.3596 28.6173 16.0053L24.8616 24.7944L15.3622 25.6568C14.6643 25.7214 14.0748 26.1931 13.8581 26.8595C13.6414 27.5258 13.8415 28.2567 14.3695 28.7174L21.5488 35.0136L19.4318 44.339C19.2769 45.0247 19.543 45.7335 20.1119 46.1447C20.4177 46.3657 20.7755 46.4781 21.1363 46.4781C21.4474 46.4781 21.7559 46.3943 22.0328 46.2286L30.2257 41.332L38.4155 46.2286C39.0148 46.5891 39.7703 46.5562 40.3379 46.1447C40.9071 45.7322 41.173 45.0232 41.0181 44.339L38.9011 35.0136L46.0804 28.7186C46.6083 28.2567 46.81 27.527 46.5933 26.8595Z" fill="url(#paint0_linear_1_797)"/>
</g>
<defs>
<linearGradient id="paint0_linear_1_797" x1="13.772" y1="14.9425" x2="45.279" y2="47.8199" gradientUnits="userSpaceOnUse">
<stop stop-color="#EE4365"/>
<stop offset="1" stop-color="#FFEEBD"/>
</linearGradient>
<clipPath id="clip0_1_797">
<rect width="32.9071" height="32.9071" fill="white" transform="translate(14.077 14.577)"/>
</clipPath>
</defs>
</svg>
